<?xml version="1.0" encoding="utf-8"?>
<svg version="1.1" id="Layer_1" x="0px" y="0px" viewBox="0 0 250 250" style="enable-background:new 0 0 250 250;" xmlns="http://www.w3.org/2000/svg">
  <style type="text/css">
	.st0{fill:#DD0031;}
	.st1{fill:#C3002F;}
	.st2{fill:#FFFFFF;}
</style>
  <path d="M 138.963 29.572 C 137.534 29.572 136.207 29.878 134.983 30.287 C 137.585 32.022 139.014 34.318 139.728 36.92 C 139.779 37.277 139.881 37.533 139.932 37.89 C 139.984 38.196 140.034 38.502 140.034 38.808 C 140.239 43.299 138.861 43.86 137.891 46.514 C 136.411 49.932 136.82 53.607 138.606 56.566 C 138.758 56.923 138.963 57.332 139.218 57.688 C 137.278 44.779 148.046 42.839 150.036 38.808 C 150.189 35.287 147.28 32.94 144.984 31.307 C 142.789 29.98 140.799 29.572 138.963 29.572 Z M 155.19 32.48 C 154.985 33.655 155.138 33.348 155.088 33.96 C 155.037 34.368 155.037 34.879 154.986 35.287 C 154.884 35.695 154.782 36.103 154.628 36.512 C 154.526 36.92 154.373 37.328 154.22 37.736 C 154.016 38.145 153.863 38.502 153.659 38.91 C 153.506 39.114 153.404 39.318 153.251 39.523 C 153.148 39.676 153.047 39.828 152.945 39.982 C 152.69 40.339 152.435 40.696 152.18 41.003 C 151.873 41.308 151.618 41.666 151.26 41.921 L 151.26 41.972 C 150.955 42.227 150.648 42.533 150.291 42.788 C 149.22 43.605 147.995 44.217 146.872 44.983 C 146.515 45.238 146.157 45.442 145.852 45.748 C 145.494 46.004 145.189 46.259 144.882 46.564 C 144.525 46.871 144.27 47.177 143.964 47.534 C 143.709 47.84 143.402 48.197 143.199 48.555 C 142.943 48.912 142.688 49.269 142.484 49.627 C 142.279 50.034 142.127 50.392 141.922 50.8 C 141.769 51.208 141.616 51.565 141.514 51.974 C 141.361 52.433 141.259 52.841 141.157 53.25 C 141.106 53.453 141.106 53.708 141.055 53.913 C 141.004 54.117 141.004 54.321 140.953 54.525 C 140.953 54.933 140.902 55.393 140.902 55.8 C 140.902 56.107 140.902 56.413 140.953 56.72 C 140.953 57.128 141.004 57.536 141.106 57.995 C 141.157 58.403 141.259 58.811 141.361 59.22 C 141.514 59.628 141.617 60.036 141.769 60.444 C 141.872 60.699 142.024 60.955 142.127 61.159 L 130.39 56.617 C 128.4 56.056 126.461 55.545 124.471 55.086 C 123.399 54.831 122.327 54.576 121.256 54.321 C 118.194 53.708 115.081 53.25 111.969 52.943 C 111.867 52.943 111.816 52.892 111.713 52.892 C 108.652 52.586 105.641 52.433 102.58 52.433 C 100.334 52.433 98.089 52.535 95.895 52.688 C 92.782 52.892 89.669 53.3 86.557 53.81 C 85.791 53.912 85.025 54.065 84.26 54.219 C 82.678 54.525 81.147 54.882 79.667 55.24 C 78.902 55.443 78.137 55.648 77.371 55.852 C 76.606 56.158 75.892 56.515 75.177 56.821 C 74.616 57.076 74.054 57.332 73.493 57.587 C 73.391 57.638 73.289 57.638 73.238 57.688 C 72.728 57.944 72.269 58.148 71.809 58.403 C 71.656 58.454 71.554 58.505 71.452 58.556 C 70.891 58.811 70.329 59.118 69.87 59.373 C 69.513 59.526 69.156 59.73 68.85 59.883 C 68.696 59.985 68.493 60.087 68.39 60.138 C 67.931 60.393 67.472 60.648 67.063 60.903 C 66.605 61.158 66.196 61.413 65.839 61.669 C 65.482 61.924 65.125 62.128 64.818 62.383 C 64.767 62.434 64.716 62.434 64.665 62.485 C 64.359 62.689 64.002 62.945 63.695 63.2 C 63.695 63.2 63.645 63.251 63.594 63.301 C 63.338 63.506 63.083 63.71 62.828 63.914 C 62.726 63.965 62.624 64.067 62.522 64.118 C 62.267 64.323 62.012 64.578 61.757 64.781 C 61.705 64.883 61.604 64.935 61.552 64.986 C 61.247 65.292 60.94 65.547 60.634 65.853 C 60.583 65.853 60.583 65.904 60.532 65.956 C 60.226 66.211 59.92 66.516 59.614 66.823 C 59.562 66.874 59.562 66.925 59.512 66.925 C 59.257 67.18 59.002 67.435 58.747 67.741 C 58.644 67.843 58.491 67.946 58.389 68.047 C 58.134 68.354 57.827 68.659 57.522 68.966 C 57.47 69.068 57.369 69.119 57.317 69.221 C 56.909 69.629 56.552 70.037 56.144 70.446 C 56.092 70.497 56.042 70.548 55.991 70.599 C 55.174 71.466 54.307 72.334 53.388 73.099 C 52.469 73.916 51.5 74.681 50.531 75.344 C 49.51 76.059 48.541 76.671 47.469 77.283 C 46.448 77.845 45.376 78.355 44.254 78.815 C 43.182 79.273 42.06 79.682 40.937 80.039 C 38.794 80.498 36.6 81.366 34.712 81.519 C 34.304 81.519 33.844 81.621 33.436 81.672 C 32.977 81.774 32.569 81.876 32.16 81.978 C 31.752 82.131 31.344 82.285 30.936 82.438 C 30.527 82.59 30.119 82.795 29.711 82.998 C 29.354 83.253 28.946 83.458 28.588 83.713 C 28.231 83.968 27.874 84.275 27.568 84.581 C 27.211 84.836 26.853 85.193 26.547 85.499 C 26.241 85.856 25.935 86.163 25.68 86.52 C 25.425 86.928 25.118 87.285 24.914 87.693 C 24.659 88.051 24.403 88.459 24.2 88.867 C 23.995 89.326 23.791 89.734 23.638 90.194 C 23.485 90.602 23.332 91.061 23.179 91.521 C 23.077 91.929 22.975 92.337 22.924 92.745 C 22.924 92.796 22.873 92.847 22.873 92.899 C 22.771 93.357 22.771 93.97 22.72 94.276 C 22.669 94.633 22.618 94.939 22.618 95.297 C 22.618 95.501 22.618 95.756 22.669 95.96 C 22.72 96.317 22.771 96.623 22.873 96.93 C 22.975 97.235 23.078 97.542 23.23 97.848 L 23.23 97.899 C 23.383 98.205 23.588 98.512 23.791 98.818 C 23.996 99.124 24.2 99.43 24.455 99.736 C 24.71 99.991 25.016 100.297 25.323 100.553 C 25.629 100.859 25.935 101.114 26.292 101.369 C 27.516 102.441 27.823 102.798 29.404 103.614 C 29.66 103.768 29.915 103.87 30.221 104.023 C 30.272 104.023 30.323 104.073 30.374 104.073 C 30.374 104.176 30.374 104.226 30.426 104.329 C 30.477 104.737 30.579 105.145 30.681 105.553 C 30.782 106.013 30.936 106.421 31.089 106.778 C 31.242 107.084 31.344 107.391 31.497 107.696 C 31.548 107.799 31.599 107.901 31.65 107.952 C 31.854 108.36 32.059 108.717 32.262 109.074 C 32.517 109.432 32.772 109.789 33.028 110.146 C 33.283 110.452 33.589 110.809 33.895 111.116 C 34.202 111.422 34.507 111.677 34.865 111.983 C 34.865 111.983 34.916 112.034 34.967 112.034 C 35.273 112.289 35.579 112.544 35.885 112.749 C 36.242 113.004 36.6 113.208 37.008 113.412 C 37.365 113.617 37.773 113.82 38.182 113.973 C 38.488 114.127 38.845 114.229 39.202 114.33 C 39.253 114.382 39.305 114.382 39.407 114.432 C 39.611 114.484 39.866 114.534 40.07 114.585 C 39.917 117.341 39.865 119.943 40.274 120.862 C 40.733 121.883 42.978 118.77 45.224 115.198 C 44.918 118.719 44.713 122.853 45.224 124.077 C 45.785 125.353 48.847 121.373 51.5 116.984 C 87.679 108.616 120.695 133.619 124.165 168.931 C 123.502 163.42 116.715 160.358 113.602 161.124 C 112.071 164.9 109.469 169.748 105.285 172.758 C 105.641 169.391 105.489 165.92 104.774 162.553 C 103.652 167.247 101.457 171.636 98.447 175.412 C 93.599 175.769 88.751 173.422 86.2 169.901 C 85.996 169.748 85.945 169.441 85.791 169.237 C 85.638 168.88 85.485 168.523 85.383 168.166 C 85.23 167.808 85.128 167.451 85.078 167.094 C 85.026 166.737 85.026 166.38 85.026 165.971 C 85.026 165.716 85.026 165.461 85.026 165.206 C 85.078 164.848 85.179 164.491 85.281 164.135 C 85.383 163.777 85.485 163.42 85.638 163.063 C 85.843 162.705 85.996 162.348 86.251 161.991 C 87.118 159.542 87.118 157.552 85.536 156.378 C 85.23 156.174 84.924 156.021 84.567 155.867 C 84.363 155.817 84.108 155.715 83.903 155.664 C 83.75 155.612 83.648 155.562 83.495 155.51 C 83.138 155.409 82.781 155.306 82.423 155.255 C 82.066 155.154 81.71 155.102 81.352 155.102 C 80.995 155.051 80.587 155 80.23 155 C 79.974 155 79.719 155.052 79.464 155.052 C 79.055 155.052 78.698 155.102 78.342 155.204 C 77.984 155.255 77.627 155.307 77.27 155.409 C 76.912 155.51 76.555 155.613 76.198 155.766 C 75.841 155.919 75.535 156.072 75.177 156.225 C 74.872 156.378 74.565 156.582 74.208 156.735 C 62.318 164.491 69.411 182.658 77.525 187.914 C 74.463 188.475 71.351 189.139 70.483 189.802 C 70.432 189.853 70.381 189.904 70.381 189.904 C 72.575 191.231 74.872 192.353 77.27 193.323 C 80.535 194.394 84.006 195.364 85.536 195.772 L 85.536 195.824 C 89.772 196.691 94.059 196.997 98.395 196.742 C 121.001 195.16 139.525 177.963 142.893 155.307 C 142.995 155.766 143.097 156.174 143.199 156.633 C 143.352 157.552 143.556 158.522 143.658 159.491 L 143.658 159.542 C 143.76 160.001 143.811 160.46 143.862 160.868 L 143.862 161.073 C 143.913 161.533 143.965 161.991 143.965 162.4 C 144.015 162.961 144.066 163.523 144.066 164.084 L 144.066 164.9 C 144.066 165.156 144.117 165.461 144.117 165.716 C 144.117 166.023 144.066 166.329 144.066 166.635 L 144.066 167.349 C 144.066 167.707 144.015 168.013 144.015 168.37 C 144.015 168.574 144.015 168.779 143.964 169.034 C 143.964 169.391 143.912 169.748 143.912 170.156 C 143.862 170.309 143.862 170.462 143.862 170.615 C 143.811 171.024 143.76 171.381 143.709 171.789 C 143.709 171.942 143.709 172.095 143.657 172.248 C 143.606 172.759 143.504 173.218 143.454 173.728 L 143.454 173.779 L 143.454 173.83 C 143.351 174.29 143.249 174.8 143.147 175.26 L 143.147 175.412 C 143.045 175.872 142.943 176.331 142.841 176.79 C 142.841 176.841 142.789 176.943 142.789 176.994 C 142.688 177.453 142.586 177.913 142.433 178.372 L 142.433 178.525 C 142.279 179.035 142.126 179.495 142.024 179.954 C 141.973 180.005 141.973 180.056 141.973 180.056 C 141.821 180.566 141.667 181.076 141.514 181.586 C 141.31 182.097 141.157 182.556 140.953 183.066 C 140.748 183.577 140.596 184.087 140.391 184.546 C 140.187 185.056 139.983 185.516 139.779 186.026 L 139.728 186.026 C 139.523 186.486 139.32 186.996 139.065 187.455 C 139.013 187.608 138.963 187.71 138.911 187.812 C 138.86 187.864 138.86 187.914 138.81 187.965 C 135.493 194.65 130.594 200.518 124.471 205.111 C 124.062 205.366 123.654 205.672 123.246 205.978 C 123.144 206.081 122.991 206.131 122.889 206.234 C 122.531 206.489 122.174 206.744 121.766 206.999 L 121.919 207.305 L 121.97 207.305 C 122.684 207.203 123.399 207.101 124.114 206.999 L 124.164 206.999 C 125.491 206.794 126.818 206.539 128.145 206.284 C 128.502 206.233 128.91 206.131 129.267 206.029 C 129.522 205.978 129.727 205.927 129.982 205.876 C 130.339 205.825 130.696 205.723 131.053 205.672 C 131.36 205.57 131.665 205.519 131.972 205.417 C 137.075 204.193 142.024 202.508 146.77 200.518 C 138.656 211.592 127.787 220.521 115.081 226.39 C 120.949 225.981 126.818 225.012 132.482 223.379 C 153.047 217.307 170.345 203.478 180.704 184.853 C 178.612 196.64 173.917 207.866 166.977 217.664 C 171.927 214.398 176.468 210.622 180.602 206.336 C 192.032 194.395 199.533 179.239 202.085 162.961 C 203.82 171.024 204.331 179.341 203.565 187.557 C 240.408 136.171 206.627 82.897 192.492 68.865 C 192.44 68.762 192.39 68.712 192.39 68.609 C 192.339 68.66 192.339 68.66 192.339 68.712 C 192.339 68.66 192.339 68.66 192.287 68.609 C 192.287 69.222 192.237 69.834 192.185 70.446 C 192.032 71.62 191.879 72.743 191.675 73.865 C 191.42 74.988 191.114 76.111 190.807 77.233 C 190.45 78.305 190.042 79.427 189.583 80.499 C 189.124 81.519 188.614 82.591 188.052 83.612 C 187.491 84.581 186.879 85.602 186.215 86.52 C 185.552 87.49 184.837 88.408 184.123 89.276 C 183.358 90.195 182.541 91.01 181.725 91.827 C 181.214 92.287 180.755 92.695 180.245 93.103 C 179.836 93.46 179.479 93.766 179.071 94.123 C 178.153 94.838 177.234 95.501 176.213 96.113 C 175.244 96.726 174.223 97.338 173.203 97.848 C 172.132 98.359 171.06 98.818 169.988 99.278 C 168.917 99.686 167.794 100.043 166.671 100.349 C 165.549 100.656 164.375 100.911 163.252 101.114 C 162.079 101.319 160.905 101.421 159.783 101.523 C 158.966 101.574 158.149 101.625 157.333 101.625 C 156.16 101.625 154.985 101.523 153.863 101.421 C 152.69 101.319 151.515 101.166 150.393 100.91 C 149.219 100.706 148.097 100.4 146.974 100.043 L 146.923 100.043 C 148.046 99.941 149.168 99.838 150.291 99.635 C 151.465 99.43 152.587 99.175 153.71 98.869 C 154.833 98.563 155.955 98.206 157.027 97.798 C 158.149 97.389 159.221 96.879 160.241 96.368 C 161.313 95.858 162.283 95.297 163.303 94.685 C 164.273 94.021 165.242 93.358 166.161 92.644 C 167.079 91.929 167.947 91.164 168.764 90.347 C 169.631 89.582 170.396 88.714 171.162 87.847 C 171.927 86.929 172.642 86.01 173.305 85.091 C 173.407 84.939 173.509 84.734 173.611 84.581 C 174.121 83.764 174.632 82.948 175.09 82.131 C 175.652 81.111 176.163 80.091 176.622 79.019 C 177.081 77.948 177.489 76.876 177.846 75.753 C 178.203 74.682 178.458 73.559 178.713 72.436 C 178.918 71.262 179.122 70.14 179.224 69.017 C 179.326 67.844 179.428 66.67 179.428 65.547 C 179.428 64.731 179.377 63.914 179.326 63.098 C 179.224 61.924 179.071 60.801 178.918 59.679 C 178.714 58.506 178.459 57.383 178.153 56.26 C 177.796 55.188 177.438 54.066 177.03 52.995 C 176.622 51.923 176.111 50.851 175.601 49.83 C 175.04 48.81 174.478 47.789 173.866 46.82 C 173.203 45.85 172.54 44.932 171.825 44.014 C 171.06 43.146 170.294 42.279 169.478 41.411 C 169.07 41.003 168.61 40.544 168.151 40.136 C 165.855 38.349 163.456 36.665 161.058 35.134 C 160.701 34.93 160.395 34.777 160.038 34.624 C 158.353 33.553 156.772 32.991 155.19 32.481 L 155.19 32.48 Z" fill="#e0234e" fill-rule="evenodd" style=""/>
</svg>