<?xml version="1.0" encoding="utf-8"?>
<svg height="966" viewBox="0 0 264.58333 255.58751" width="1000" xmlns="http://www.w3.org/2000/svg">
  <path d="M 149.209 14.24 C 147.573 14.24 146.054 14.591 144.652 15.058 C 147.632 17.044 149.267 19.673 150.085 22.653 C 150.144 23.062 150.261 23.354 150.319 23.763 C 150.378 24.113 150.436 24.464 150.436 24.814 C 150.67 29.956 149.092 30.598 147.982 33.636 C 146.288 37.551 146.755 41.757 148.8 45.145 C 148.975 45.554 149.209 46.022 149.501 46.431 C 147.281 31.65 159.608 29.43 161.887 24.814 C 162.062 20.783 158.732 18.096 156.103 16.226 C 153.591 14.707 151.312 14.24 149.209 14.24 Z M 167.787 17.57 C 167.554 18.914 167.729 18.563 167.671 19.264 C 167.612 19.732 167.612 20.316 167.554 20.783 C 167.437 21.251 167.32 21.718 167.145 22.185 C 167.028 22.653 166.853 23.12 166.678 23.588 C 166.444 24.055 166.269 24.464 166.035 24.931 C 165.86 25.165 165.743 25.399 165.567 25.632 C 165.451 25.808 165.334 25.983 165.217 26.158 C 164.925 26.567 164.633 26.976 164.341 27.327 C 163.99 27.677 163.698 28.086 163.289 28.378 L 163.289 28.437 C 162.938 28.729 162.588 29.079 162.179 29.371 C 160.952 30.306 159.55 31.007 158.265 31.884 C 157.856 32.176 157.447 32.409 157.096 32.76 C 156.687 33.052 156.337 33.344 155.986 33.695 C 155.577 34.045 155.285 34.396 154.935 34.805 C 154.642 35.155 154.292 35.564 154.058 35.973 C 153.766 36.382 153.474 36.791 153.24 37.2 C 153.007 37.667 152.831 38.076 152.598 38.544 C 152.422 39.011 152.247 39.42 152.13 39.888 C 151.955 40.413 151.838 40.881 151.721 41.348 C 151.663 41.582 151.663 41.874 151.605 42.108 C 151.546 42.341 151.546 42.575 151.488 42.809 C 151.488 43.276 151.429 43.802 151.429 44.269 C 151.429 44.62 151.429 44.97 151.488 45.321 C 151.488 45.788 151.546 46.256 151.663 46.781 C 151.722 47.249 151.838 47.716 151.955 48.184 C 152.131 48.651 152.247 49.118 152.423 49.586 C 152.539 49.878 152.715 50.17 152.832 50.404 L 139.394 45.204 C 137.116 44.561 134.896 43.977 132.617 43.451 C 131.391 43.159 130.164 42.867 128.937 42.575 C 125.431 41.874 121.868 41.348 118.304 40.998 C 118.187 40.998 118.129 40.939 118.012 40.939 C 114.506 40.589 111.06 40.413 107.554 40.413 C 104.984 40.413 102.413 40.53 99.901 40.705 C 96.337 40.939 92.773 41.406 89.21 41.991 C 88.333 42.107 87.457 42.283 86.581 42.458 C 84.769 42.809 83.017 43.218 81.323 43.627 C 80.446 43.86 79.57 44.094 78.693 44.328 C 77.817 44.678 76.999 45.087 76.181 45.438 C 75.539 45.73 74.896 46.022 74.253 46.314 C 74.137 46.372 74.02 46.372 73.961 46.431 C 73.377 46.723 72.851 46.956 72.325 47.249 C 72.15 47.307 72.033 47.365 71.916 47.424 C 71.274 47.716 70.631 48.067 70.105 48.359 C 69.696 48.534 69.287 48.768 68.937 48.943 C 68.762 49.06 68.528 49.177 68.411 49.235 C 67.885 49.527 67.36 49.819 66.892 50.111 C 66.366 50.403 65.899 50.696 65.49 50.988 C 65.081 51.28 64.672 51.513 64.322 51.806 C 64.263 51.864 64.205 51.864 64.146 51.922 C 63.796 52.156 63.387 52.448 63.036 52.74 C 63.036 52.74 62.978 52.799 62.92 52.857 C 62.627 53.091 62.335 53.324 62.043 53.558 C 61.926 53.617 61.809 53.733 61.693 53.792 C 61.401 54.026 61.108 54.318 60.816 54.551 C 60.758 54.668 60.641 54.727 60.583 54.785 C 60.232 55.136 59.881 55.428 59.531 55.778 C 59.472 55.778 59.472 55.837 59.414 55.895 C 59.064 56.187 58.713 56.538 58.363 56.888 C 58.304 56.947 58.304 57.005 58.246 57.005 C 57.954 57.297 57.662 57.589 57.369 57.94 C 57.253 58.056 57.077 58.174 56.961 58.29 C 56.668 58.641 56.318 58.991 55.967 59.342 C 55.909 59.459 55.792 59.517 55.734 59.634 C 55.266 60.101 54.857 60.569 54.39 61.036 C 54.331 61.095 54.273 61.153 54.215 61.211 C 53.28 62.205 52.287 63.198 51.235 64.074 C 50.183 65.009 49.073 65.885 47.963 66.645 C 46.795 67.463 45.685 68.164 44.458 68.865 C 43.29 69.507 42.063 70.092 40.777 70.617 C 39.551 71.143 38.265 71.611 36.98 72.02 C 34.526 72.545 32.014 73.539 29.852 73.714 C 29.385 73.714 28.859 73.831 28.392 73.889 C 27.866 74.006 27.399 74.123 26.931 74.24 C 26.464 74.415 25.997 74.59 25.529 74.765 C 25.062 74.941 24.594 75.174 24.127 75.408 C 23.718 75.7 23.251 75.934 22.842 76.226 C 22.433 76.518 22.024 76.869 21.673 77.219 C 21.264 77.511 20.855 77.92 20.505 78.271 C 20.154 78.68 19.804 79.03 19.512 79.439 C 19.22 79.907 18.869 80.316 18.635 80.783 C 18.343 81.192 18.051 81.659 17.817 82.127 C 17.584 82.652 17.35 83.12 17.175 83.646 C 16.999 84.113 16.824 84.639 16.649 85.165 C 16.532 85.632 16.415 86.099 16.357 86.567 C 16.357 86.625 16.298 86.683 16.298 86.742 C 16.182 87.268 16.182 87.969 16.123 88.319 C 16.065 88.728 16.006 89.079 16.006 89.488 C 16.006 89.722 16.006 90.014 16.065 90.247 C 16.123 90.656 16.182 91.007 16.299 91.357 C 16.415 91.708 16.532 92.058 16.708 92.409 L 16.708 92.467 C 16.883 92.818 17.117 93.169 17.35 93.519 C 17.584 93.87 17.818 94.22 18.11 94.571 C 18.402 94.863 18.752 95.213 19.103 95.505 C 19.453 95.856 19.804 96.148 20.213 96.44 C 21.615 97.667 21.966 98.076 23.777 99.011 C 24.069 99.186 24.361 99.303 24.711 99.478 C 24.77 99.478 24.828 99.537 24.887 99.537 C 24.887 99.653 24.887 99.712 24.945 99.829 C 25.004 100.296 25.12 100.764 25.237 101.231 C 25.354 101.757 25.529 102.224 25.705 102.633 C 25.88 102.984 25.997 103.334 26.172 103.685 C 26.231 103.801 26.289 103.918 26.347 103.977 C 26.581 104.444 26.815 104.853 27.048 105.262 C 27.341 105.671 27.633 106.08 27.925 106.489 C 28.217 106.84 28.567 107.248 28.918 107.599 C 29.268 107.95 29.619 108.242 30.028 108.592 C 30.028 108.592 30.087 108.651 30.145 108.651 C 30.495 108.943 30.846 109.235 31.196 109.469 C 31.605 109.761 32.014 109.994 32.482 110.228 C 32.891 110.462 33.358 110.696 33.825 110.871 C 34.176 111.046 34.585 111.163 34.994 111.28 C 35.052 111.338 35.111 111.338 35.228 111.397 C 35.461 111.455 35.753 111.513 35.987 111.572 C 35.812 114.727 35.753 117.706 36.221 118.758 C 36.747 119.926 39.317 116.362 41.888 112.273 C 41.537 116.304 41.304 121.036 41.888 122.438 C 42.53 123.899 46.036 119.342 49.074 114.318 C 90.495 104.736 128.295 133.363 132.267 173.792 C 131.508 167.482 123.738 163.977 120.174 164.853 C 118.421 169.176 115.442 174.726 110.651 178.173 C 111.06 174.317 110.885 170.345 110.067 166.489 C 108.782 171.864 106.269 176.888 102.822 181.211 C 97.272 181.62 91.722 178.933 88.801 174.902 C 88.567 174.726 88.509 174.376 88.334 174.142 C 88.158 173.733 87.983 173.324 87.866 172.915 C 87.691 172.506 87.574 172.097 87.516 171.688 C 87.457 171.28 87.457 170.871 87.457 170.403 C 87.457 170.111 87.457 169.819 87.457 169.527 C 87.516 169.118 87.632 168.709 87.749 168.3 C 87.866 167.891 87.983 167.482 88.158 167.073 C 88.392 166.664 88.567 166.255 88.859 165.846 C 89.853 163.042 89.853 160.763 88.041 159.42 C 87.691 159.186 87.34 159.011 86.931 158.836 C 86.698 158.777 86.406 158.66 86.172 158.602 C 85.997 158.543 85.88 158.485 85.705 158.426 C 85.296 158.31 84.887 158.193 84.478 158.134 C 84.069 158.018 83.66 157.959 83.251 157.959 C 82.842 157.901 82.374 157.842 81.966 157.842 C 81.673 157.842 81.381 157.901 81.089 157.901 C 80.622 157.901 80.213 157.959 79.804 158.076 C 79.395 158.135 78.986 158.193 78.577 158.31 C 78.168 158.427 77.759 158.544 77.35 158.719 C 76.941 158.894 76.591 159.069 76.182 159.245 C 75.831 159.42 75.481 159.654 75.072 159.829 C 61.459 168.709 69.58 189.507 78.869 195.525 C 75.364 196.168 71.8 196.927 70.807 197.687 C 70.748 197.745 70.69 197.803 70.69 197.803 C 73.202 199.322 75.831 200.608 78.577 201.718 C 82.316 202.945 86.289 204.055 88.042 204.522 L 88.042 204.58 C 92.891 205.574 97.798 205.924 102.764 205.632 C 128.645 203.821 149.852 184.133 153.708 158.193 C 153.825 158.719 153.942 159.186 154.059 159.712 C 154.234 160.764 154.468 161.874 154.585 162.984 L 154.585 163.042 C 154.701 163.568 154.76 164.094 154.818 164.561 L 154.818 164.795 C 154.877 165.321 154.935 165.847 154.935 166.314 C 154.994 166.957 155.052 167.599 155.052 168.242 L 155.052 169.177 C 155.052 169.469 155.11 169.819 155.11 170.111 C 155.11 170.462 155.052 170.813 155.052 171.163 L 155.052 171.981 C 155.052 172.39 154.993 172.74 154.993 173.149 C 154.993 173.383 154.993 173.617 154.935 173.909 C 154.935 174.318 154.876 174.727 154.876 175.194 C 154.818 175.369 154.818 175.545 154.818 175.72 C 154.759 176.187 154.701 176.596 154.643 177.064 C 154.643 177.239 154.643 177.414 154.584 177.59 C 154.525 178.174 154.409 178.7 154.35 179.284 L 154.35 179.342 L 154.35 179.401 C 154.234 179.927 154.117 180.511 154 181.037 L 154 181.212 C 153.883 181.738 153.766 182.264 153.649 182.789 C 153.649 182.848 153.591 182.965 153.591 183.023 C 153.474 183.549 153.357 184.075 153.182 184.601 L 153.182 184.776 C 153.007 185.36 152.831 185.886 152.714 186.412 C 152.656 186.47 152.656 186.528 152.656 186.528 C 152.481 187.113 152.305 187.697 152.13 188.281 C 151.896 188.865 151.721 189.391 151.487 189.975 C 151.254 190.56 151.078 191.144 150.845 191.67 C 150.611 192.254 150.377 192.78 150.144 193.364 L 150.085 193.364 C 149.851 193.89 149.618 194.474 149.326 195 C 149.267 195.175 149.209 195.292 149.15 195.409 C 149.092 195.467 149.092 195.525 149.034 195.584 C 145.236 203.237 139.628 209.956 132.617 215.214 C 132.15 215.506 131.682 215.856 131.215 216.207 C 131.098 216.324 130.923 216.382 130.806 216.499 C 130.397 216.791 129.988 217.083 129.521 217.375 L 129.696 217.726 L 129.754 217.726 C 130.572 217.609 131.39 217.492 132.208 217.375 L 132.267 217.375 C 133.786 217.142 135.305 216.85 136.824 216.558 C 137.232 216.499 137.7 216.382 138.109 216.265 C 138.401 216.207 138.635 216.149 138.927 216.09 C 139.336 216.032 139.745 215.915 140.154 215.856 C 140.504 215.74 140.855 215.681 141.205 215.564 C 147.047 214.162 152.714 212.234 158.148 209.956 C 148.859 222.633 136.415 232.857 121.867 239.576 C 128.586 239.108 135.305 237.998 141.789 236.129 C 165.334 229.177 185.139 213.344 196.999 192.02 C 194.603 205.516 189.228 218.369 181.283 229.586 C 186.95 225.847 192.15 221.523 196.882 216.616 C 209.968 202.945 218.557 185.594 221.478 166.957 C 223.464 176.187 224.048 185.71 223.172 195.116 C 265.353 136.285 226.677 75.292 210.494 59.226 C 210.436 59.109 210.377 59.051 210.377 58.934 C 210.319 58.992 210.319 58.992 210.319 59.05 C 210.319 58.992 210.319 58.992 210.26 58.934 C 210.26 59.635 210.202 60.336 210.144 61.037 C 209.968 62.381 209.793 63.666 209.559 64.951 C 209.267 66.236 208.917 67.522 208.566 68.807 C 208.157 70.034 207.69 71.319 207.164 72.546 C 206.638 73.715 206.054 74.941 205.411 76.11 C 204.769 77.22 204.068 78.388 203.308 79.44 C 202.549 80.55 201.731 81.602 200.913 82.595 C 200.037 83.646 199.102 84.581 198.167 85.516 C 197.583 86.042 197.057 86.509 196.473 86.976 C 196.005 87.385 195.596 87.736 195.129 88.145 C 194.077 88.963 193.026 89.722 191.857 90.423 C 190.747 91.124 189.579 91.825 188.41 92.41 C 187.184 92.994 185.957 93.52 184.73 94.046 C 183.503 94.513 182.218 94.922 180.932 95.272 C 179.647 95.623 178.303 95.915 177.018 96.149 C 175.674 96.383 174.331 96.499 173.045 96.616 C 172.111 96.675 171.176 96.733 170.241 96.733 C 168.897 96.733 167.554 96.616 166.268 96.499 C 164.925 96.382 163.581 96.207 162.296 95.915 C 160.952 95.681 159.667 95.331 158.381 94.922 L 158.323 94.922 C 159.608 94.805 160.893 94.688 162.179 94.454 C 163.522 94.221 164.808 93.929 166.093 93.578 C 167.378 93.227 168.664 92.818 169.89 92.351 C 171.176 91.884 172.403 91.3 173.571 90.715 C 174.798 90.131 175.908 89.488 177.076 88.787 C 178.186 88.028 179.296 87.268 180.348 86.45 C 181.4 85.633 182.393 84.756 183.328 83.821 C 184.321 82.945 185.197 81.952 186.073 80.959 C 186.95 79.907 187.768 78.856 188.527 77.804 C 188.644 77.629 188.761 77.395 188.878 77.22 C 189.462 76.285 190.046 75.35 190.572 74.415 C 191.215 73.247 191.799 72.079 192.325 70.852 C 192.85 69.625 193.318 68.398 193.727 67.113 C 194.136 65.886 194.428 64.6 194.72 63.315 C 194.954 61.971 195.187 60.686 195.304 59.401 C 195.421 58.057 195.538 56.713 195.538 55.428 C 195.538 54.493 195.479 53.559 195.421 52.624 C 195.305 51.28 195.129 49.995 194.954 48.71 C 194.72 47.366 194.428 46.081 194.078 44.795 C 193.669 43.568 193.26 42.283 192.792 41.056 C 192.325 39.829 191.741 38.602 191.156 37.434 C 190.514 36.266 189.871 35.097 189.17 33.987 C 188.411 32.877 187.651 31.825 186.833 30.774 C 185.957 29.781 185.08 28.788 184.146 27.794 C 183.678 27.327 183.153 26.801 182.627 26.334 C 179.998 24.289 177.252 22.361 174.506 20.608 C 174.097 20.375 173.747 20.199 173.338 20.024 C 171.41 18.797 169.599 18.155 167.787 17.57 Z" fill="#e0234e" fill-rule="evenodd" style=""/>
</svg>