<?xml version="1.0"?>
<svg width="250" height="250" xmlns="http://www.w3.org/2000/svg" xmlns:svg="http://www.w3.org/2000/svg" enable-background="new 0 0 250 250" version="1.1" xml:space="preserve">
 <style type="text/css">.st0{fill:#DD0031;}
	.st1{fill:#C3002F;}
	.st2{fill:#FFFFFF;}</style>
 <style class="darkreader darkreader--sync" media="screen"/>
 <g class="layer">
  <title>Layer 1</title>
  <g id="svg_1">
   <polygon class="st0" id="svg_2" points="92.4 0 92.4 0 92.4 0 0 33.3 14 156.1 92.4 200 92.4 200 92.4 200 171.3 156.1 185.6 33.3 92.4 0"/>
   <polygon class="st1" id="svg_3" points="92.4 0 92.4 22.2 92.4 22.2 92.4 123.2 92.4 123.2 92.4 200 92.4 200 171.3 156.1 185.6 33.3 92.4 0"/>
    <path class="st2" d="m92,23.1l-58.2,130.5l0,0l21.7,0l0,0l11.7,-29.2l49.4,0l11.7,29.2l0,0l21.7,0l0,0l-58,-130.5l0,0l0,0l0,0l0,0zm17,83.3l-34,0l17,-40.9l17,40.9z" id="svg_4"/>
  </g>
 </g>
</svg>