<svg version="1.1" id="Layer_1" xmlns="http://www.w3.org/2000/svg" xmlns:xlink="http://www.w3.org/1999/xlink" x="0px" y="0px" 
  viewBox="0 0 250 250" style="enable-background:new 0 0 250 250;" xml:space="preserve">
<style type="text/css">
.cls-1{fill:#37474f;}
.cls-2{fill:#263238;}
.cls-3{fill:#fff;}
</style>
<g>
    <polygon class="cls-1" points="92.4 0 92.4 0 92.4 0 0 33.3 14 156.1 92.4 200 92.4 200 92.4 200 171.3 156.1 185.6 33.3 92.4 0"/>
    <polygon class="cls-2" points="92.4 0 92.4 22.2 92.4 22.2 92.4 123.2 92.4 123.2 92.4 200 92.4 200 171.3 156.1 185.6 33.3 92.4 0"/>
    <path class="cls-3" d="M42.8,55v90h100V55ZM138,139.9H47.5V60.1h90.6v79.8Z"/>
    <polygon class="cls-3" points="60.1 111.4 63.5 114.9 82.8 95.5 63.2 75.9 59.8 79.3 76 95.5 60.1 111.4"/>
    <rect class="cls-3" x="82.8" y="117.2" width="30" height="4"/>
</g>
</svg>