<svg width="696" height="600" viewBox="0 0 696 600" fill="none" xmlns="http://www.w3.org/2000/svg">
<path d="M573.6 488.3H139.9C117.1 488.3 98.5 469.8 98.5 446.9V178.4C98.5 155.6 117 137 139.9 137H573.7C596.5 137 615.1 155.5 615.1 178.4V447C615 469.8 596.5 488.3 573.6 488.3Z" fill="#001F2C" stroke="#001E2B" stroke-width="0.75" stroke-miterlimit="10"/>
<path d="M573.6 467.9H139.9C117.1 467.9 98.5 449.4 98.5 426.5V158C98.5 135.2 117 116.6 139.9 116.6H573.7C596.5 116.6 615.1 135.1 615.1 158V426.5C615 449.3 596.5 467.9 573.6 467.9Z" fill="#00F14C" stroke="#001F2C" stroke-width="0.75" stroke-miterlimit="10"/>
<path d="M573.6 467.9H139.9C117.1 467.9 98.5 449.4 98.5 426.5V186.3H615V426.5C615 449.3 596.5 467.9 573.6 467.9Z" fill="white" stroke="#001E2B" stroke-width="0.75" stroke-miterlimit="10"/>
<path d="M98.5 186.3H615" stroke="#231F20" stroke-width="0.75" stroke-miterlimit="10"/>
<path d="M663.6 84.4L663.4 105.1L642.7 115.9L642.3 95.5L663.6 84.4Z" fill="#00222F" stroke="#001E2B" stroke-width="0.75" stroke-miterlimit="10" stroke-linejoin="round"/>
<path d="M663.5 84.3L646.4 72.8L625.8 83.6L642.3 95.5L663.5 84.3Z" fill="white" stroke="#001E2B" stroke-width="0.75" stroke-miterlimit="10" stroke-linejoin="round"/>
<path d="M626.4 103.9L642.7 115.9L642.3 95.5001L625.8 83.6001L626.4 103.9Z" fill="white" stroke="#001E2B" stroke-width="0.75" stroke-miterlimit="10" stroke-linejoin="round"/>
<path d="M459.2 510.6H548.9" stroke="#001E2B" stroke-width="0.75" stroke-miterlimit="10" stroke-dasharray="2 2"/>
<path d="M204.6 510.6H441.9" stroke="#001E2B" stroke-width="0.75" stroke-miterlimit="10" stroke-dasharray="2 2"/>
<path d="M259.7 532.8H496.9" stroke="#001E2B" stroke-width="0.75" stroke-miterlimit="10" stroke-dasharray="2 2"/>
<path d="M244.1 54.2001L259.9 66.7001L275.7 79.3001L256.9 86.7001L238.1 94.1001L241.1 74.1001L244.1 54.2001Z" fill="white" stroke="#001E2B" stroke-width="0.75" stroke-miterlimit="10"/>
<path d="M252.4 75.2001L238.1 94.1001L275.7 79.3001L252.4 75.2001Z" fill="#001E2B"/>
<path d="M252.4 75.2001L244.1 54.2001" stroke="#001E2B" stroke-width="0.75" stroke-miterlimit="10"/>
<path d="M141.8 162.9C147.323 162.9 151.8 158.423 151.8 152.9C151.8 147.377 147.323 142.9 141.8 142.9C136.277 142.9 131.8 147.377 131.8 152.9C131.8 158.423 136.277 162.9 141.8 162.9Z" fill="white" stroke="#001E2B" stroke-width="0.75" stroke-miterlimit="10"/>
<path d="M169.5 162.9C175.023 162.9 179.5 158.423 179.5 152.9C179.5 147.377 175.023 142.9 169.5 142.9C163.977 142.9 159.5 147.377 159.5 152.9C159.5 158.423 163.977 162.9 169.5 162.9Z" fill="white" stroke="#001E2B" stroke-width="0.75" stroke-miterlimit="10"/>
<path d="M197.2 162.9C202.723 162.9 207.2 158.423 207.2 152.9C207.2 147.377 202.723 142.9 197.2 142.9C191.677 142.9 187.2 147.377 187.2 152.9C187.2 158.423 191.677 162.9 197.2 162.9Z" fill="white" stroke="#001E2B" stroke-width="0.75" stroke-miterlimit="10"/>
<path d="M604.3 95.3H544.6" stroke="#001E2B" stroke-width="0.75" stroke-miterlimit="10"/>
<path d="M529.7 95.3H470.1" stroke="#001E2B" stroke-width="0.75" stroke-miterlimit="10"/>
<path d="M562.2 259.2H152L99.2 404.9H615L562.2 259.2Z" fill="#00A564" stroke="#001E2B" stroke-width="0.75" stroke-miterlimit="10" stroke-linejoin="round"/>
<path d="M562.2 259.2V404.9H615L562.2 259.2Z" fill="#00222F" stroke="#001E2B" stroke-width="0.75" stroke-miterlimit="10" stroke-linejoin="round"/>
<path d="M152 259.2V404.9H99.2L152 259.2Z" fill="#00885A" stroke="#001E2B" stroke-width="0.75" stroke-miterlimit="10" stroke-linejoin="round"/>
<path d="M530.4 272.7L518.3 255C514.4 249.3 507.8 245.8 500.9 245.8H434.8C427.8 245.8 421.3 249.2 417.4 255L405.2 272.7C400.2 279.9 392 284.2 383.3 284.2H150.9V458.5H562.6V284.2H552.4C543.6 284.2 535.4 279.9 530.4 272.7Z" fill="#FFE212" stroke="#001E2B" stroke-width="0.75" stroke-miterlimit="10"/>
<path d="M140 458.9V310.3H304C312.6 310.3 320.7 306 325.6 298.9L337.8 281.2C341.8 275.4 348.4 271.9 355.5 271.9H421.6C428.7 271.9 435.3 275.4 439.3 281.2L451.5 298.9C456.4 306 464.5 310.3 473.1 310.3H573.5V458.9H140Z" fill="#FFC010"/>
<path d="M421.6 272.3C428.6 272.3 435.1 275.7 439 281.5L451.2 299.2C456.2 306.4 464.4 310.7 473.1 310.7H573.1V458.5H140.3V310.6H303.9C312.7 310.6 320.9 306.3 325.8 299.1L338 281.4C341.9 275.7 348.5 272.2 355.4 272.2H421.6V272.3ZM421.6 271.5H355.5C348.3 271.5 341.6 275 337.5 281L325.3 298.7C320.5 305.7 312.5 309.9 304 309.9H140.3H139.5V310.7V458.5V459.3H140.3H573.1H573.9V458.5V310.6V309.8H573.1H473.1C464.6 309.8 456.6 305.6 451.8 298.6L439.6 281C435.5 275.1 428.8 271.5 421.6 271.5Z" fill="#001E2B"/>
<path d="M371.9 325.5L359.7 307.8C355.8 302.1 349.2 298.6 342.3 298.6H276.2C269.2 298.6 262.7 302 258.8 307.8L246.6 325.5C241.6 332.7 233.4 337 224.7 337H129.8V458.4H583.7V337.1H393.9C385.1 337.1 376.9 332.8 371.9 325.5Z" fill="#FFE212" stroke="#001E2B" stroke-width="0.75" stroke-miterlimit="10"/>
<path d="M119.2 439.9V362.8H145.8C154.4 362.8 162.5 358.5 167.4 351.4L179.6 333.7C183.6 327.9 190.2 324.4 197.3 324.4H263.4C270.5 324.4 277.1 327.9 281.1 333.7L293.3 351.4C298.2 358.5 306.3 362.8 314.9 362.8H594.9V439.9H119.2Z" fill="#FFC010"/>
<path d="M263.4 324.8C270.4 324.8 276.9 328.2 280.8 334L293 351.7C298 358.9 306.2 363.2 314.9 363.2H594.6V439.6H119.6V363.2H145.8C154.6 363.2 162.8 358.9 167.7 351.7L179.9 334C183.8 328.3 190.4 324.8 197.3 324.8H263.4ZM263.4 324H197.3C190.1 324 183.4 327.5 179.3 333.5L167.1 351.2C162.3 358.2 154.3 362.4 145.8 362.4H119.6H118.8V363.2V439.6V440.4H119.6H594.7H595.5V439.6V363.2V362.4H594.7H315C306.5 362.4 298.5 358.2 293.7 351.2L281.5 333.5C277.4 327.5 270.6 324 263.4 324Z" fill="#001E2B"/>
<path d="M98.5 405.5V426.5C98.5 449.3 117 467.9 139.9 467.9H573.7C596.5 467.9 615.1 449.4 615.1 426.5V405.5H98.5Z" fill="#00A564" stroke="#001E2B" stroke-width="0.75" stroke-miterlimit="10" stroke-linejoin="round"/>
<path d="M532.7 147.4H299.6V46.8C299.6 36.6 307.8 28.4 318 28.4H514.3C524.5 28.4 532.7 36.6 532.7 46.8V147.4Z" fill="#FFE212" stroke="#001E2B" stroke-width="0.75" stroke-miterlimit="10"/>
<path d="M532.7 147.7H299.6V161.4H532.7V147.7Z" fill="#001E2B" stroke="#001E2B" stroke-width="0.75" stroke-miterlimit="10"/>
<path d="M323.4 77.8001C326.327 77.8001 328.7 75.4272 328.7 72.5001C328.7 69.573 326.327 67.2001 323.4 67.2001C320.473 67.2001 318.1 69.573 318.1 72.5001C318.1 75.4272 320.473 77.8001 323.4 77.8001Z" fill="#001E2B" stroke="#001E2B" stroke-width="0.75" stroke-miterlimit="10"/>
<path d="M532.7 76.9V58C532.7 52.2 528 47.5 522.2 47.5C516.4 47.5 511.7 52.2 511.7 58V101.3C511.7 107.1 507 111.8 501.2 111.8C495.4 111.8 490.7 107.1 490.7 101.3V51.5C490.7 45.7 486 41 480.2 41C474.4 41 469.7 45.7 469.7 51.5V117.2C469.7 123 465 127.7 459.2 127.7C453.4 127.7 449 123 449 117.2V74.7C449 68.9 444.3 64.2 438.5 64.2C432.7 64.2 428 68.9 428 74.7V96.5C428 102.3 423.3 107 417.5 107C411.7 107 407 102.3 407 96.5V60.3C407 54.5 402.3 49.8 396.5 49.8C390.7 49.8 386 54.5 386 60.3V96.5C386 102.3 381.3 107 375.5 107C369.7 107 365 102.3 365 96.5V52.3C365 46.5 360.3 41.8 354.5 41.8C348.7 41.8 344 46.5 344 52.3V123.3C344 129.1 339.3 133.8 333.5 133.8C327.7 133.8 323 129.1 323 123.3V73.7" stroke="#001E2B" stroke-width="0.75" stroke-miterlimit="10"/>
<path d="M323.4 75.5C325.057 75.5 326.4 74.1569 326.4 72.5C326.4 70.8431 325.057 69.5 323.4 69.5C321.743 69.5 320.4 70.8431 320.4 72.5C320.4 74.1569 321.743 75.5 323.4 75.5Z" fill="white" stroke="white" stroke-width="0.75" stroke-miterlimit="10"/>
<path d="M651.8 143.4L678.5 211.3L609.6 372.2L510.8 287.7L575.9 135.6L651.8 143.4Z" fill="white" stroke="#231F20" stroke-width="0.75" stroke-miterlimit="10"/>
<path d="M518.6 285.8L580 142.6L654.9 150.2L675.3 202.1L607.1 361.4L518.6 285.8Z" fill="#FFC010"/>
<path d="M580.2 143L654.6 150.6L674.9 202.2L607 360.8L519.1 285.7L580.2 143ZM579.7 142.2L579.5 142.7L518.4 285.4L518.2 285.9L518.6 286.3L606.5 361.4L607.3 362.1L607.7 361.2L675.6 202.5L675.7 202.2L675.6 201.9L655.3 150.3L655.1 149.9H654.6L580.2 142.3L579.7 142.2Z" fill="#001E2B"/>
<path d="M561.4 223.7L623.9 252.6C626.3 253.7 629.2 252.7 630.3 250.2C631.3 247.8 630.1 245 627.6 244L563.6 218.7C562.2 218.2 560.7 218.8 560.1 220.1L560 220.2C559.5 221.6 560.1 223.1 561.4 223.7Z" fill="#FFE212" stroke="#001E2B" stroke-width="0.75" stroke-miterlimit="10"/>
<path d="M571.5 201.3L638 221.5C640.3 222.2 642.7 221.1 643.7 218.9C644.8 216.3 643.3 213.2 640.4 212.5L572.9 196C571.6 195.7 570.3 196.3 569.7 197.5C569.1 199.1 569.9 200.8 571.5 201.3Z" fill="#FFE212" stroke="#001E2B" stroke-width="0.75" stroke-miterlimit="10"/>
<path d="M582.4 176.4L651.9 190.2C654 190.6 656.2 189.5 657 187.5C658.2 184.7 656.4 181.6 653.3 181.2L583.1 171.1C581.9 170.9 580.7 171.6 580.3 172.7C579.7 174.3 580.7 176.1 582.4 176.4Z" fill="#FFE212" stroke="#001E2B" stroke-width="0.75" stroke-miterlimit="10"/>
<path d="M543.8 266.6L601.8 307.4C603.6 308.7 604.3 311 603.4 312.9C602.2 315.7 598.7 316.5 596.3 314.6L540.6 270.8C539.6 270 539.3 268.8 539.8 267.7C540.4 266.1 542.4 265.6 543.8 266.6Z" fill="#FFE212" stroke="#001E2B" stroke-width="0.75" stroke-miterlimit="10"/>
<path d="M554.2 241.5L614.7 275.7C616.8 276.9 617.7 279.4 616.7 281.6C615.6 284.2 612.3 285.2 609.8 283.6L551.3 246.1C550.2 245.4 549.8 244 550.3 242.8V242.7C551 241.3 552.8 240.7 554.2 241.5Z" fill="#FFE212" stroke="#001E2B" stroke-width="0.75" stroke-miterlimit="10"/>
<path d="M678.5 211.3L631.6 196L651.8 143.4L678.5 211.3Z" fill="white" stroke="#231F20" stroke-width="0.75" stroke-miterlimit="10" stroke-linejoin="round"/>
<path d="M678.5 211.3L632.3 203.4L635 197.1L678.5 211.3Z" fill="#001E2B"/>
<path d="M233 126.3L230 146.2L267.6 131.4L251.8 118.9L248.9 116.6H234.4L233 126.3Z" fill="#001E2B"/>
<path d="M321 268.3H139.5C125.4 268.3 113.8 256.7 113.8 242.6V235.2H346.7V242.6C346.7 256.8 335.2 268.3 321 268.3Z" fill="#001E2B" stroke="#001E2B" stroke-width="0.75" stroke-miterlimit="10"/>
<path d="M324.5 257.5H136.1C123.9 257.5 113.8 247.5 113.8 235.2C113.8 223 123.8 212.9 136.1 212.9H324.5C336.7 212.9 346.8 222.9 346.8 235.2C346.7 247.5 336.7 257.5 324.5 257.5Z" fill="#B1FF05" stroke="#231F20" stroke-width="0.75" stroke-miterlimit="10"/>
<path d="M287.3 235.2H318.7" stroke="#001E2B" stroke-width="0.75" stroke-miterlimit="10" stroke-dasharray="2 2"/>
<path d="M221 235.2H277" stroke="#001E2B" stroke-width="0.75" stroke-miterlimit="10" stroke-dasharray="2 2"/>
<path d="M180.4 235.2H212.7" stroke="#001E2B" stroke-width="0.75" stroke-miterlimit="10" stroke-dasharray="2 2"/>
<path d="M141.8 235.2H169.7" stroke="#001E2B" stroke-width="0.75" stroke-miterlimit="10" stroke-dasharray="2 2"/>
<path d="M226.7 330.5H45.2C31.1 330.5 19.5 318.9 19.5 304.8V297.4H252.4V304.8C252.4 319 240.8 330.5 226.7 330.5Z" fill="#001E2B" stroke="#001E2B" stroke-width="0.75" stroke-miterlimit="10"/>
<path d="M230.1 319.7H41.6999C29.4999 319.7 19.3999 309.7 19.3999 297.4C19.3999 285.2 29.3999 275.1 41.6999 275.1H230.1C242.3 275.1 252.4 285.1 252.4 297.4C252.4 309.7 242.4 319.7 230.1 319.7Z" fill="#B1FF05" stroke="#231F20" stroke-width="0.75" stroke-miterlimit="10"/>
<path d="M193 297.5H224.4" stroke="#001E2B" stroke-width="0.75" stroke-miterlimit="10" stroke-dasharray="2 2"/>
<path d="M126.7 297.5H182.7" stroke="#001E2B" stroke-width="0.75" stroke-miterlimit="10" stroke-dasharray="2 2"/>
<path d="M86 297.5H118.4" stroke="#001E2B" stroke-width="0.75" stroke-miterlimit="10" stroke-dasharray="2 2"/>
<path d="M47.5 297.5H75.3" stroke="#001E2B" stroke-width="0.75" stroke-miterlimit="10" stroke-dasharray="2 2"/>
<path d="M50.3 55.3L23.5 123.2L92.4 284.1L191.3 199.7L126.2 47.6L50.3 55.3Z" fill="white" stroke="#231F20" stroke-width="0.75" stroke-miterlimit="10"/>
<path d="M47.4001 62.6L27.1001 114.1L95.1001 272.8L182.9 197.7L121.8 55L47.4001 62.6Z" fill="#FFE212" stroke="#001E2B" stroke-width="0.75" stroke-miterlimit="10"/>
<path d="M73.5999 168C71.5999 168 69.6999 166.8 68.8999 165C68.3999 163.7 68.3999 162.4 68.8999 161.1C69.3999 159.8 70.4999 158.8 71.7999 158.3L135.8 133C136.2 132.9 136.6 132.8 136.9 132.8C138.1 132.8 139.2 133.5 139.7 134.6L139.8 134.7C140.4 136.2 139.8 138 138.2 138.7L75.6999 167.6C74.9999 167.8 74.2999 168 73.5999 168Z" fill="#FFC010"/>
<path d="M136.9 133.1C137.9 133.1 138.9 133.7 139.3 134.7L139.4 134.8C140 136.1 139.4 137.7 138 138.3L75.4998 167.2C74.7998 167.5 74.0998 167.6 73.4998 167.6C71.6998 167.6 69.8998 166.6 69.1998 164.8C68.1998 162.4 69.3998 159.6 71.8998 158.6L135.9 133.3C136.2 133.2 136.6 133.1 136.9 133.1ZM136.9 132.4C136.5 132.4 136 132.5 135.6 132.6L71.5998 157.9C70.1998 158.5 69.0998 159.5 68.4998 160.9C67.8998 162.3 67.8998 163.8 68.4998 165.1C69.3998 167.1 71.2998 168.4 73.4998 168.4C74.2998 168.4 75.0998 168.2 75.7998 167.9L138.3 139C140 138.2 140.8 136.3 140 134.6L139.9 134.5C139.5 133.2 138.3 132.4 136.9 132.4Z" fill="#001E2B"/>
<path d="M60.0998 136.6C58.0998 136.6 56.2998 135.4 55.4998 133.6C54.8998 132.3 54.9998 130.7 55.5998 129.4C56.2998 128 57.4998 127.1 58.9998 126.7L126.5 110.3C126.7 110.2 127 110.2 127.3 110.2C128.5 110.2 129.7 110.9 130.1 112.1C130.4 112.9 130.4 113.8 130.1 114.6C129.7 115.4 129 116 128.2 116.3L61.6998 136.5C61.0998 136.5 60.5998 136.6 60.0998 136.6Z" fill="#FFC010"/>
<path d="M127.2 110.5C128.3 110.5 129.3 111.1 129.7 112.1C130.3 113.6 129.5 115.3 127.9 115.8L61.4998 136C60.9998 136.1 60.5998 136.2 60.0998 136.2C58.2998 136.2 56.5998 135.1 55.7998 133.4C54.6998 130.8 56.1998 127.7 59.0998 127L126.6 110.6C126.8 110.6 127 110.5 127.2 110.5ZM127.2 109.8C126.9 109.8 126.6 109.8 126.4 109.9L58.8998 126.3C57.2998 126.7 55.9998 127.7 55.2998 129.2C54.5998 130.6 54.4998 132.3 55.1998 133.7C55.9998 135.7 57.9998 136.9 60.1998 136.9C60.6998 136.9 61.2998 136.8 61.7998 136.7L128.3 116.5C129.3 116.2 130.1 115.5 130.5 114.6C130.9 113.7 130.9 112.7 130.5 111.8C129.9 110.6 128.6 109.8 127.2 109.8Z" fill="#001E2B"/>
<path d="M46.6 105.3C44.6 105.3 42.8 104.1 42.1 102.3C41.5 100.9 41.6 99.3 42.3 98C43.1 96.6 44.4 95.7 46 95.5L116.2 85.4C116.3 85.4 116.5 85.4 116.6 85.4C117.8 85.4 118.9 86.1 119.4 87.2C119.8 88 119.7 89 119.3 89.8C118.9 90.6 118.1 91.2 117.2 91.4L47.7 105.2C47.3 105.2 46.9 105.3 46.6 105.3Z" fill="#FFC010"/>
<path d="M116.6 85.7C117.7 85.7 118.6 86.3 119 87.3C119.7 88.9 118.7 90.6 117 91L47.4999 104.8C47.1999 104.9 46.8999 104.9 46.5999 104.9C44.7999 104.9 43.0999 103.8 42.3999 102.2C41.1999 99.4 42.9999 96.3 46.0999 95.9L116.3 85.8C116.4 85.7 116.5 85.7 116.6 85.7ZM116.6 85C116.4 85 116.3 85 116.1 85L45.9999 95.1C44.2999 95.3 42.8999 96.3 41.9999 97.8C41.1999 99.2 41.0999 100.9 41.6999 102.5C42.4999 104.4 44.4999 105.7 46.5999 105.7C46.9999 105.7 47.2999 105.7 47.6999 105.6L117.2 91.8C118.2 91.6 119.1 90.9 119.6 90C120.1 89.1 120.1 88 119.7 87.1C119.2 85.8 118 85 116.6 85Z" fill="#001E2B"/>
<path d="M100.3 230.6C98.2999 230.6 96.4999 229.4 95.6999 227.6C94.7999 225.5 95.4999 223 97.3999 221.6L155.4 180.8C155.9 180.4 156.5 180.2 157.2 180.2C158.4 180.2 159.5 180.9 160 182C160.5 183.3 160.2 184.7 159.1 185.6L103.4 229.4C102.5 230.2 101.4 230.6 100.3 230.6Z" fill="#FFC010"/>
<path d="M157.3 180.6C158.3 180.6 159.3 181.2 159.8 182.2C160.3 183.3 159.9 184.6 159 185.3L103.3 229.1C102.4 229.8 101.4 230.1 100.4 230.1C98.6 230.1 96.9 229.1 96.2 227.4C95.4 225.4 96 223.1 97.8 221.9L155.8 181.1C156.2 180.8 156.7 180.6 157.3 180.6ZM157.3 179.9C156.6 179.9 155.9 180.1 155.3 180.5L97.3 221.3C95.2 222.7 94.4 225.5 95.4 227.7C96.2 229.6 98.2 230.9 100.3 230.9C101.5 230.9 102.7 230.5 103.7 229.7L159.4 185.9C160.6 184.9 161.1 183.3 160.4 181.9C159.9 180.7 158.6 179.9 157.3 179.9Z" fill="#001E2B"/>
<path d="M87 199.4C85 199.4 83.2 198.2 82.4 196.4C81.4 194.1 82.3 191.3 84.6 190L145.1 155.8C145.6 155.5 146.1 155.4 146.6 155.4C147.8 155.4 148.9 156.1 149.4 157.2V157.3C150 158.7 149.5 160.2 148.2 161L89.7 198.5C88.9 199.1 87.9 199.4 87 199.4Z" fill="#FFC010"/>
<path d="M146.6 155.7C147.6 155.7 148.6 156.3 149 157.3V157.4C149.5 158.6 149.1 160 148 160.7L89.4999 198.2C88.6999 198.7 87.7999 199 86.8999 199C85.0999 199 83.3999 198 82.5999 196.2C81.6999 194 82.4999 191.5 84.5999 190.3L145.1 156.1C145.7 155.8 146.1 155.7 146.6 155.7ZM146.6 155C146 155 145.4 155.2 144.9 155.5L84.3999 189.7C81.9999 191.1 80.9999 194 81.9999 196.5C82.7999 198.5 84.7999 199.7 86.9999 199.7C88.0999 199.7 89.0999 199.4 89.9999 198.8L148.5 161.3C149.9 160.4 150.5 158.6 149.8 157.1V157C149.2 155.8 148 155 146.6 155Z" fill="#001E2B"/>
<path d="M23.5 123.2L70.4 107.9L50.3 55.2999L23.5 123.2Z" fill="white" stroke="#231F20" stroke-width="0.75" stroke-miterlimit="10" stroke-linejoin="round"/>
<path d="M23.5 123.2L69.8 115.4L67.1 109L23.5 123.2Z" fill="#001E2B"/>
<path d="M652.9 502C661.571 502 668.6 494.971 668.6 486.3C668.6 477.629 661.571 470.6 652.9 470.6C644.229 470.6 637.2 477.629 637.2 486.3C637.2 494.971 644.229 502 652.9 502Z" fill="white" stroke="#001E2B" stroke-width="0.75" stroke-miterlimit="10"/>
<path d="M643.3 498.7C643.3 498.7 663.1 492.1 665.9 477.5C669.3 482.1 670.6 492.5 663.2 498C655.8 503.6 648.7 501.7 643.3 498.7Z" fill="#023430" stroke="#001E2B" stroke-width="0.75" stroke-miterlimit="10"/>
<path d="M651.3 583C651.3 583 653.8 586.3 662 579.9C670.2 573.5 667.7 570.3 667.7 570.3L616.8 503.8C616.8 503.8 613.5 501.4 606.2 507.1C598.9 512.8 600.4 516.5 600.4 516.5L651.3 583Z" fill="#00F14C" stroke="#001F2C" stroke-width="0.75" stroke-miterlimit="10"/>
<path d="M601.4 519.7C601.4 519.7 605.1 522 613 516C620.9 510 619.7 505.8 619.7 505.8L608.7 491.3C608.7 491.3 606.7 494 600.1 499C593.5 504 590.3 505.1 590.3 505.1L601.4 519.7Z" fill="#00F14C" stroke="#001F2C" stroke-width="0.75" stroke-miterlimit="10"/>
<path d="M515 393.5C546.7 369.6 591.7 376 615.6 407.6C639.5 439.2 633.1 484.3 601.5 508.2C569.8 532.1 524.8 525.7 500.9 494.1C477 462.5 483.3 417.4 515 393.5ZM506.9 489.5C528.3 517.9 568.6 523.5 596.9 502.2C625.3 480.8 630.9 440.5 609.6 412.2C588.2 383.8 547.9 378.2 519.6 399.5C491.2 420.9 485.5 461.2 506.9 489.5Z" fill="#001F2C"/>
<path d="M515 393.5C546.7 369.6 591.7 376 615.6 407.6C639.5 439.2 633.1 484.3 601.5 508.2C569.8 532.1 524.8 525.7 500.9 494.1C477 462.5 483.3 417.4 515 393.5ZM506.9 489.5C528.3 517.9 568.6 523.5 596.9 502.2C625.3 480.8 630.9 440.5 609.6 412.2C588.2 383.8 547.9 378.2 519.6 399.5C491.2 420.9 485.5 461.2 506.9 489.5Z" stroke="#001F2C" stroke-width="0.75" stroke-miterlimit="10"/>
<path d="M514.1 386.6C545.8 362.7 590.8 369.1 614.7 400.7C638.6 432.3 632.2 477.4 600.6 501.3C568.9 525.2 523.9 518.8 500 487.2C476.1 455.6 482.4 410.4 514.1 386.6ZM505.9 482.6C527.3 511 567.6 516.6 595.9 495.3C624.3 473.9 629.9 433.6 608.6 405.3C587.2 376.9 546.9 371.3 518.6 392.6C490.2 413.9 484.6 454.2 505.9 482.6Z" fill="#00F14C" stroke="#001F2C" stroke-width="0.75" stroke-miterlimit="10"/>
<path d="M514.1 386.6C545.8 362.7 590.8 369.1 614.7 400.7C638.6 432.3 632.2 477.4 600.6 501.3C568.9 525.2 523.9 518.8 500 487.2C476.1 455.6 482.4 410.4 514.1 386.6ZM505.9 482.6C527.3 511 567.6 516.6 595.9 495.3C624.3 473.9 629.9 433.6 608.6 405.3C587.2 376.9 546.9 371.3 518.6 392.6C490.2 413.9 484.6 454.2 505.9 482.6Z" fill="#00F14C" stroke="#001F2C" stroke-width="0.75" stroke-miterlimit="10"/>
<path d="M604.2 498.7L615.7 513.9C615.7 513.9 620.6 509.3 619.8 505.7L610.2 492.9L604.2 498.7Z" fill="#001F2C"/>
<path d="M222 519C221.3 492.6 207 461.5 181.2 435.7C155.4 409.9 124.3 395.6 97.8999 394.9L84.7999 381.8L57.1999 409.4C30.1999 436.4 42.0999 491.9 83.5999 533.4C125.1 574.9 180.6 586.7 207.6 559.8L235.2 532.2L222 519Z" fill="#FFC010" stroke="#001E2B" stroke-width="0.75" stroke-miterlimit="10"/>
<path d="M181.1 435.7C177.4 432 173.6 428.6 169.8 425.4L73.1997 522C76.3997 525.9 79.7997 529.6 83.4997 533.3C125 574.8 180.5 586.6 207.5 559.7L235.1 532.1L222 519C221.2 492.6 206.9 461.5 181.1 435.7Z" fill="#FF9F10" stroke="#001E2B" stroke-width="0.75" stroke-miterlimit="10"/>
<path d="M235.089 532.146C262.035 505.2 250.227 449.704 208.714 408.192C167.202 366.679 111.706 354.871 84.7599 381.817C57.8139 408.763 69.6224 464.259 111.135 505.771C152.647 547.284 208.143 559.092 235.089 532.146Z" fill="#FFC010" stroke="#001E2B" stroke-width="0.75" stroke-miterlimit="10"/>
<path d="M208.7 408.2C206.2 405.7 203.7 403.3 201.1 401.1C236.8 441.6 245.7 492.1 220.3 517.5C195 542.8 144.4 533.9 103.9 498.3C106.2 500.9 108.6 503.4 111 505.9C152.5 547.4 208 559.2 235 532.3C262 505.2 250.2 449.7 208.7 408.2Z" fill="#FF9F10" stroke="#001E2B" stroke-width="0.75" stroke-miterlimit="10"/>
<path d="M220.3 517.4C200.2 537.5 156.9 526.7 123.5 493.3C90.0998 459.9 79.2998 416.6 99.3998 396.5C119.5 376.4 169.2 356 215 401.8C260.8 447.6 240.4 497.3 220.3 517.4Z" fill="#FFE212" stroke="#001E2B" stroke-width="0.75" stroke-miterlimit="10"/>
<path d="M220.382 517.438C240.454 497.366 229.659 454.026 196.269 420.636C162.88 387.247 119.54 376.452 99.4675 396.524C79.3947 416.597 90.1901 459.937 123.58 493.326C156.969 526.716 200.309 537.511 220.382 517.438Z" stroke="#001E2B" stroke-width="0.75" stroke-miterlimit="10" stroke-dasharray="2 2"/>
<path d="M166.4 450.5L201.2 503.4L148.3 468.6L113.4 415.6L166.4 450.5Z" fill="#001E2B" stroke="#001E2B" stroke-width="0.75" stroke-miterlimit="10"/>
<path d="M220.8 468.2L207.9 465.7" stroke="#001E2B" stroke-width="0.75" stroke-miterlimit="10"/>
<path d="M112.9 447.3L99.8999 444.8" stroke="#001E2B" stroke-width="0.75" stroke-miterlimit="10"/>
<path d="M172.1 516.9L169.6 504" stroke="#001E2B" stroke-width="0.75" stroke-miterlimit="10"/>
<path d="M151.2 409L148.7 396" stroke="#001E2B" stroke-width="0.75" stroke-miterlimit="10"/>
<path d="M172.9 444L207.7 497L154.7 462.1L119.9 409.2L172.9 444Z" fill="#00ED64" stroke="#001E2B" stroke-width="0.75" stroke-miterlimit="10" stroke-linejoin="round"/>
<path d="M169.977 459.234C172.125 457.086 171.112 452.59 167.715 449.193C164.317 445.795 159.822 444.782 157.674 446.93C155.526 449.078 156.539 453.573 159.936 456.971C163.334 460.368 167.829 461.382 169.977 459.234Z" fill="#001E2B" stroke="#001E2B" stroke-width="0.75" stroke-miterlimit="10"/>
<path d="M222.7 410.2C227.8 442.7 217.5 477.7 191.9 503.2C184.2 510.9 175.7 517.2 166.7 522.1C188.1 530.3 208.4 529.3 220.3 517.3C239.2 498.6 258.3 453.5 222.7 410.2Z" stroke="#001E2B" stroke-width="0.75" stroke-miterlimit="10" stroke-dasharray="2 2"/>
<path d="M133.376 481.683L136.261 487.799L135.486 488.574L127.046 483.756L127.951 482.85L134.505 486.641L131.135 479.443L138.333 482.813L134.552 476.25L135.458 475.344L140.275 483.784L139.5 484.559L133.376 481.683Z" fill="black"/>
<path d="M182.868 427.934L186.733 424.068L187.555 424.89L184.558 427.887L186.565 429.894L189.002 427.458L189.823 428.279L187.387 430.716L189.543 432.873L192.54 429.876L193.362 430.697L189.497 434.562L182.868 427.934Z" fill="black"/>
</svg>
