<svg width="687" height="471" viewBox="0 0 687 471" fill="none" xmlns="http://www.w3.org/2000/svg">
<path d="M452.3 394.7H110.3C92.3 394.7 77.7 380.1 77.7 362.1V150.4C77.7 132.4 92.3 117.8 110.3 117.8H452.3C470.3 117.8 484.9 132.4 484.9 150.4V362.1C484.9 380.1 470.3 394.7 452.3 394.7Z" fill="#001F2C"/>
<path d="M452.3 378.6H110.3C92.3 378.6 77.7 364 77.7 346V134.2C77.7 116.2 92.3 101.6 110.3 101.6H452.3C470.3 101.6 484.9 116.2 484.9 134.2V346C484.9 364 470.3 378.6 452.3 378.6Z" fill="white" stroke="#001F2C" stroke-width="0.75" stroke-miterlimit="10"/>
<path d="M77.5999 156.6H484.9" stroke="#231F20" stroke-width="0.75" stroke-miterlimit="10"/>
<path d="M429 461.9L412.7 461.8L404.2 445.5L420.2 445.2L429 461.9Z" fill="#00222F" stroke="#001E2B" stroke-width="0.75" stroke-miterlimit="10" stroke-linejoin="round"/>
<path d="M429.1 461.9L438.2 448.4L429.7 432.1L420.3 445.1L429.1 461.9Z" fill="white" stroke="#001E2B" stroke-width="0.75" stroke-miterlimit="10" stroke-linejoin="round"/>
<path d="M413.7 432.6L404.2 445.5L420.3 445.1L429.7 432.1L413.7 432.6Z" fill="white" stroke="#001E2B" stroke-width="0.75" stroke-miterlimit="10" stroke-linejoin="round"/>
<path d="M247.8 74.1C254.648 74.1 260.2 68.5483 260.2 61.7C260.2 54.8517 254.648 49.3 247.8 49.3C240.952 49.3 235.4 54.8517 235.4 61.7C235.4 68.5483 240.952 74.1 247.8 74.1Z" fill="white" stroke="#001E2B" stroke-width="0.75" stroke-miterlimit="10"/>
<path d="M240.3 71.5C240.3 71.5 255.9 66.3 258.2 54.8C260.9 58.4 261.9 66.6 256 71C250.2 75.3 244.5 73.8 240.3 71.5Z" fill="#023430" stroke="#001E2B" stroke-width="0.75" stroke-miterlimit="10"/>
<path d="M212.1 124V259.1H109.1V159.8L144.9 124H212.1Z" fill="white" stroke="#231F20" stroke-width="0.75" stroke-miterlimit="10"/>
<path d="M110.1 159.4L144.6 124.9V159.4H110.1Z" fill="white"/>
<path d="M144.2 125.8V159H111L144.2 125.8ZM144.9 124L109.1 159.8H144.9V124Z" fill="#231F20"/>
<path d="M144.9 129.8H206.9V254H114.7V159.8H144.9V129.8Z" fill="#00ED64" stroke="#001E2B" stroke-width="0.75" stroke-miterlimit="10"/>
<path d="M141 159.8L143.5 167.7L109.1 159.8H141Z" fill="#001E2B"/>
<path d="M144.9 147.1H195.2C196.2 147.1 197 146.3 197 145.3V145.1C197 144.1 196.2 143.3 195.2 143.3H144.9V147.1Z" fill="#00ED64" stroke="#001E2B" stroke-width="0.75" stroke-miterlimit="10"/>
<path d="M154.7 163.5H195.2C196.2 163.5 197 162.7 197 161.7V161.5C197 160.5 196.2 159.7 195.2 159.7H154.7C153.7 159.7 152.9 160.5 152.9 161.5V161.7C153 162.7 153.8 163.5 154.7 163.5Z" fill="#00ED64" stroke="#001E2B" stroke-width="0.75" stroke-miterlimit="10"/>
<path d="M129.6 181.9H195.3C196.3 181.9 197.1 181.1 197.1 180.1V179.9C197.1 178.9 196.3 178.1 195.3 178.1H129.6C128.6 178.1 127.8 178.9 127.8 179.9V180.1C127.8 181.1 128.6 181.9 129.6 181.9Z" fill="#00ED64" stroke="#001E2B" stroke-width="0.75" stroke-miterlimit="10"/>
<path d="M129.6 218.5H195.3C196.3 218.5 197.1 217.7 197.1 216.7V216.5C197.1 215.5 196.3 214.7 195.3 214.7H129.6C128.6 214.7 127.8 215.5 127.8 216.5V216.7C127.8 217.7 128.6 218.5 129.6 218.5Z" fill="#00ED64" stroke="#001E2B" stroke-width="0.75" stroke-miterlimit="10"/>
<path d="M160.5 200.2H195.2C196.2 200.2 197 199.4 197 198.4V198.2C197 197.2 196.2 196.4 195.2 196.4H160.5C159.5 196.4 158.7 197.2 158.7 198.2V198.4C158.8 199.4 159.5 200.2 160.5 200.2Z" fill="#00ED64" stroke="#001E2B" stroke-width="0.75" stroke-miterlimit="10"/>
<path d="M129.6 200.2H148.2C149.2 200.2 150 199.4 150 198.4V198.2C150 197.2 149.2 196.4 148.2 196.4H129.6C128.6 196.4 127.8 197.2 127.8 198.2V198.4C127.8 199.4 128.6 200.2 129.6 200.2Z" fill="#00ED64" stroke="#001E2B" stroke-width="0.75" stroke-miterlimit="10"/>
<path d="M176.7 236.8H195.3C196.3 236.8 197.1 236 197.1 235V234.8C197.1 233.8 196.3 233 195.3 233H176.7C175.7 233 174.9 233.8 174.9 234.8V235C174.9 236.1 175.7 236.8 176.7 236.8Z" fill="#00ED64" stroke="#001E2B" stroke-width="0.75" stroke-miterlimit="10"/>
<path d="M129.6 236.8H166.2C167.2 236.8 168 236 168 235V234.8C168 233.8 167.2 233 166.2 233H129.6C128.6 233 127.8 233.8 127.8 234.8V235C127.8 236.1 128.6 236.8 129.6 236.8Z" fill="#00ED64" stroke="#001E2B" stroke-width="0.75" stroke-miterlimit="10"/>
<path d="M333 124V259.1H230V159.8L265.8 124H333Z" fill="white" stroke="#231F20" stroke-width="0.75" stroke-miterlimit="10"/>
<path d="M230 159.8L265.8 124V159.8H230Z" fill="white" stroke="#231F20" stroke-width="0.75" stroke-miterlimit="10" stroke-linejoin="round"/>
<path d="M265.8 129.8H327.7V254H235.5V159.8H265.8V129.8Z" fill="#FFC010" stroke="#001E2B" stroke-width="0.75" stroke-miterlimit="10"/>
<path d="M261.8 159.8L264.3 167.7L230 159.8H261.8Z" fill="#001E2B"/>
<path d="M453.8 124V259.1H350.8V159.8L386.6 124H453.8Z" fill="white" stroke="#231F20" stroke-width="0.75" stroke-miterlimit="10"/>
<path d="M350.8 159.8L386.6 124V159.8H350.8Z" fill="white" stroke="#231F20" stroke-width="0.75" stroke-miterlimit="10" stroke-linejoin="round"/>
<path d="M386.6 129.8H448.6V254H356.3V159.8H386.6V129.8Z" fill="#00ED64" stroke="#001E2B" stroke-width="0.75" stroke-miterlimit="10"/>
<path d="M382.6 159.8L385.1 167.7L350.8 159.8H382.6Z" fill="#001E2B"/>
<path d="M386.6 147.1H436.9C437.9 147.1 438.7 146.3 438.7 145.3V145.1C438.7 144.1 437.9 143.3 436.9 143.3H386.6V147.1Z" fill="#00ED64" stroke="#001E2B" stroke-width="0.75" stroke-miterlimit="10"/>
<path d="M396.4 163.5H436.9C437.9 163.5 438.7 162.7 438.7 161.7V161.5C438.7 160.5 437.9 159.7 436.9 159.7H396.4C395.4 159.7 394.6 160.5 394.6 161.5V161.7C394.7 162.7 395.4 163.5 396.4 163.5Z" fill="#00ED64" stroke="#001E2B" stroke-width="0.75" stroke-miterlimit="10"/>
<path d="M371.2 181.9H436.9C437.9 181.9 438.7 181.1 438.7 180.1V179.9C438.7 178.9 437.9 178.1 436.9 178.1H371.2C370.2 178.1 369.4 178.9 369.4 179.9V180.1C369.5 181.1 370.3 181.9 371.2 181.9Z" fill="#00ED64" stroke="#001E2B" stroke-width="0.75" stroke-miterlimit="10"/>
<path d="M371.2 218.5H436.9C437.9 218.5 438.7 217.7 438.7 216.7V216.5C438.7 215.5 437.9 214.7 436.9 214.7H371.2C370.2 214.7 369.4 215.5 369.4 216.5V216.7C369.5 217.7 370.3 218.5 371.2 218.5Z" fill="#00ED64" stroke="#001E2B" stroke-width="0.75" stroke-miterlimit="10"/>
<path d="M402.2 200.2H436.9C437.9 200.2 438.7 199.4 438.7 198.4V198.2C438.7 197.2 437.9 196.4 436.9 196.4H402.2C401.2 196.4 400.4 197.2 400.4 198.2V198.4C400.4 199.4 401.2 200.2 402.2 200.2Z" fill="#00ED64" stroke="#001E2B" stroke-width="0.75" stroke-miterlimit="10"/>
<path d="M371.2 200.2H389.8C390.8 200.2 391.6 199.4 391.6 198.4V198.2C391.6 197.2 390.8 196.4 389.8 196.4H371.2C370.2 196.4 369.4 197.2 369.4 198.2V198.4C369.5 199.4 370.3 200.2 371.2 200.2Z" fill="#00ED64" stroke="#001E2B" stroke-width="0.75" stroke-miterlimit="10"/>
<path d="M418.3 236.8H436.9C437.9 236.8 438.7 236 438.7 235V234.8C438.7 233.8 437.9 233 436.9 233H418.3C417.3 233 416.5 233.8 416.5 234.8V235C416.6 236.1 417.4 236.8 418.3 236.8Z" fill="#00ED64" stroke="#001E2B" stroke-width="0.75" stroke-miterlimit="10"/>
<path d="M371.2 236.8H407.8C408.8 236.8 409.6 236 409.6 235V234.8C409.6 233.8 408.8 233 407.8 233H371.2C370.2 233 369.4 233.8 369.4 234.8V235C369.5 236.1 370.3 236.8 371.2 236.8Z" fill="#00ED64" stroke="#001E2B" stroke-width="0.75" stroke-miterlimit="10"/>
<path d="M212.1 281V416.2H109.1V316.8L144.9 281H212.1Z" fill="white" stroke="#231F20" stroke-width="0.75" stroke-miterlimit="10"/>
<path d="M109.1 316.8L144.9 281V316.8H109.1Z" fill="white" stroke="#231F20" stroke-width="0.75" stroke-miterlimit="10" stroke-linejoin="round"/>
<path d="M144.9 286.8H206.9V411.1H114.7V316.8H144.9V286.8Z" fill="#FFE212" stroke="#001F2C" stroke-width="0.75" stroke-miterlimit="10"/>
<path d="M141 316.8L143.5 324.7L109.1 316.8H141Z" fill="#001E2B"/>
<path d="M333 281V416.2H230V316.8L265.8 281H333Z" fill="white" stroke="#231F20" stroke-width="0.75" stroke-miterlimit="10"/>
<path d="M230 316.8L265.8 281V316.8H230Z" fill="white" stroke="#231F20" stroke-width="0.75" stroke-miterlimit="10" stroke-linejoin="round"/>
<path d="M265.8 286.8H327.7V411.1H235.5V316.8H265.8V286.8Z" fill="#00ED64" stroke="#001E2B" stroke-width="0.75" stroke-miterlimit="10"/>
<path d="M261.8 316.8L264.3 324.7L230 316.8H261.8Z" fill="#001E2B"/>
<path d="M265.8 304.1H316.1C317.1 304.1 317.9 303.3 317.9 302.3V302.1C317.9 301.1 317.1 300.3 316.1 300.3H265.8V304.1Z" fill="#00ED64" stroke="#001E2B" stroke-width="0.75" stroke-miterlimit="10"/>
<path d="M275.6 320.6H316.1C317.1 320.6 317.9 319.8 317.9 318.8V318.6C317.9 317.6 317.1 316.8 316.1 316.8H275.6C274.6 316.8 273.8 317.6 273.8 318.6V318.8C273.8 319.8 274.6 320.6 275.6 320.6Z" fill="#00ED64" stroke="#001E2B" stroke-width="0.75" stroke-miterlimit="10"/>
<path d="M250.4 338.9H316.1C317.1 338.9 317.9 338.1 317.9 337.1V336.9C317.9 335.9 317.1 335.1 316.1 335.1H250.4C249.4 335.1 248.6 335.9 248.6 336.9V337.1C248.6 338.1 249.4 338.9 250.4 338.9Z" fill="#00ED64" stroke="#001E2B" stroke-width="0.75" stroke-miterlimit="10"/>
<path d="M250.4 375.6H316.1C317.1 375.6 317.9 374.8 317.9 373.8V373.6C317.9 372.6 317.1 371.8 316.1 371.8H250.4C249.4 371.8 248.6 372.6 248.6 373.6V373.8C248.6 374.8 249.4 375.6 250.4 375.6Z" fill="#00ED64" stroke="#001E2B" stroke-width="0.75" stroke-miterlimit="10"/>
<path d="M281.4 357.2H316.1C317.1 357.2 317.9 356.4 317.9 355.4V355.2C317.9 354.2 317.1 353.4 316.1 353.4H281.4C280.4 353.4 279.6 354.2 279.6 355.2V355.4C279.6 356.4 280.4 357.2 281.4 357.2Z" fill="#00ED64" stroke="#001E2B" stroke-width="0.75" stroke-miterlimit="10"/>
<path d="M250.4 357.2H269C270 357.2 270.8 356.4 270.8 355.4V355.2C270.8 354.2 270 353.4 269 353.4H250.4C249.4 353.4 248.6 354.2 248.6 355.2V355.4C248.6 356.4 249.4 357.2 250.4 357.2Z" fill="#00ED64" stroke="#001E2B" stroke-width="0.75" stroke-miterlimit="10"/>
<path d="M297.5 393.9H316.1C317.1 393.9 317.9 393.1 317.9 392.1V391.9C317.9 390.9 317.1 390.1 316.1 390.1H297.5C296.5 390.1 295.7 390.9 295.7 391.9V392.1C295.7 393.1 296.5 393.9 297.5 393.9Z" fill="#00ED64" stroke="#001E2B" stroke-width="0.75" stroke-miterlimit="10"/>
<path d="M250.4 393.9H287C288 393.9 288.8 393.1 288.8 392.1V391.9C288.8 390.9 288 390.1 287 390.1H250.4C249.4 390.1 248.6 390.9 248.6 391.9V392.1C248.6 393.1 249.4 393.9 250.4 393.9Z" fill="#00ED64" stroke="#001E2B" stroke-width="0.75" stroke-miterlimit="10"/>
<path d="M453.8 281V416.2H350.8V316.8L386.6 281H453.8Z" fill="white" stroke="#231F20" stroke-width="0.75" stroke-miterlimit="10"/>
<path d="M350.8 316.8L386.6 281V316.8H350.8Z" fill="white" stroke="#231F20" stroke-width="0.75" stroke-miterlimit="10" stroke-linejoin="round"/>
<path d="M386.6 286.8H448.6V411.1H356.3V316.8H386.6V286.8Z" fill="#FFE212" stroke="#001F2C" stroke-width="0.75" stroke-miterlimit="10"/>
<path d="M382.6 316.8L385.1 324.7L350.8 316.8H382.6Z" fill="#001E2B"/>
<path d="M440.9 383.8V404.5C440.9 426.6 485 444.5 539.4 444.5C593.8 444.5 637.9 426.6 637.9 404.5V383.8H440.9Z" fill="#001E2B" stroke="#001E2B" stroke-width="0.75" stroke-miterlimit="10"/>
<path d="M440.9 317.4V394.6C440.9 416.7 485 434.6 539.4 434.6C593.8 434.6 637.9 416.7 637.9 394.6V317.4C637.9 295.3 593.8 277.4 539.4 277.4C485 277.5 440.9 295.4 440.9 317.4Z" fill="#00ED64"/>
<path d="M637.9 317.4V394.6C637.9 416.7 593.8 434.6 539.4 434.6C485 434.6 440.9 416.7 440.9 394.6V317.4" stroke="#231F20" stroke-width="0.75" stroke-miterlimit="10"/>
<path d="M637.9 356.9C637.9 379 593.8 396.9 539.4 396.9C485 396.9 440.9 379 440.9 356.9" stroke="#231F20" stroke-width="0.75" stroke-miterlimit="10"/>
<path d="M618.7 293.7V418.3C630.7 411.7 637.9 403.5 637.9 394.6V317.4C637.9 308.6 630.8 300.4 618.7 293.7Z" fill="#001E2B" stroke="#001E2B" stroke-width="0.75" stroke-miterlimit="10"/>
<path d="M539.4 357.4C593.8 357.4 637.9 339.491 637.9 317.4C637.9 295.309 593.8 277.4 539.4 277.4C485 277.4 440.9 295.309 440.9 317.4C440.9 339.491 485 357.4 539.4 357.4Z" fill="white" stroke="#231F20" stroke-width="0.75" stroke-miterlimit="10"/>
<path d="M521.2 306.1V320.4C521.2 324.5 529.4 327.8 539.4 327.8C549.5 327.8 557.6 324.5 557.6 320.4V306.1C557.6 302 549.4 298.7 539.4 298.7C529.3 298.7 521.2 302 521.2 306.1Z" fill="#B1FF05" stroke="#001E2B" stroke-width="0.75" stroke-miterlimit="10"/>
<path d="M548.2 299.6L544.7 327.5C552.2 326.6 557.6 323.8 557.6 320.4V306.1C557.6 303.3 553.8 300.9 548.2 299.6Z" fill="#001E2B" stroke="#001E2B" stroke-width="0.75" stroke-miterlimit="10"/>
<path d="M637.9 203.8C637.9 181.7 593.8 163.8 539.4 163.8C485 163.8 440.9 181.7 440.9 203.8" stroke="#231F20" stroke-width="0.75" stroke-miterlimit="10"/>
<path d="M440.9 197V274.2C440.9 296.3 485 314.2 539.4 314.2C593.8 314.2 637.9 296.3 637.9 274.2V197C637.9 174.9 593.8 157 539.4 157C485 157.1 440.9 175 440.9 197Z" fill="#00ED64"/>
<path d="M618.7 173.3V297.9C630.7 291.3 637.9 283.1 637.9 274.2V197C637.9 188.2 630.8 180 618.7 173.3Z" fill="#001E2B" stroke="#001E2B" stroke-width="0.75" stroke-miterlimit="10"/>
<path d="M539.4 237C593.8 237 637.9 219.091 637.9 197C637.9 174.909 593.8 157 539.4 157C485 157 440.9 174.909 440.9 197C440.9 219.091 485 237 539.4 237Z" fill="white" stroke="#231F20" stroke-width="0.75" stroke-miterlimit="10"/>
<path d="M637.9 197V274.2C637.9 296.3 593.8 314.2 539.4 314.2C485 314.2 440.9 296.3 440.9 274.2V197" stroke="#231F20" stroke-width="0.75" stroke-miterlimit="10"/>
<path d="M521.2 185.7V200C521.2 204.1 529.4 207.4 539.4 207.4C549.5 207.4 557.6 204.1 557.6 200V185.7C557.6 181.6 549.4 178.3 539.4 178.3C529.3 178.3 521.2 181.6 521.2 185.7Z" fill="#B1FF05" stroke="#001E2B" stroke-width="0.75" stroke-miterlimit="10"/>
<path d="M548.2 179.2L544.7 207.1C552.2 206.2 557.6 203.4 557.6 200V185.7C557.6 182.9 553.8 180.5 548.2 179.2Z" fill="#001E2B" stroke="#001E2B" stroke-width="0.75" stroke-miterlimit="10"/>
<path d="M440.9 76.6V153.8C440.9 175.9 485 193.8 539.4 193.8C593.8 193.8 637.9 175.9 637.9 153.8V76.6C637.9 54.5 593.8 36.6 539.4 36.6C485 36.6 440.9 54.5 440.9 76.6Z" fill="#00ED64"/>
<path d="M637.9 76.6C637.9 54.5 593.8 36.6 539.4 36.6C485 36.6 440.9 54.5 440.9 76.6" stroke="#231F20" stroke-width="0.75" stroke-miterlimit="10"/>
<path d="M637.9 76.6V153.8C637.9 175.9 593.8 193.8 539.4 193.8C485 193.8 440.9 175.9 440.9 153.8V76.6" stroke="#231F20" stroke-width="0.75" stroke-miterlimit="10"/>
<path d="M637.9 115.2C637.9 137.3 593.8 155.2 539.4 155.2C485 155.2 440.9 137.3 440.9 115.2" stroke="#231F20" stroke-width="0.75" stroke-miterlimit="10"/>
<path d="M637.9 235.6C637.9 257.7 593.8 275.6 539.4 275.6C485 275.6 440.9 257.7 440.9 235.6" stroke="#231F20" stroke-width="0.75" stroke-miterlimit="10"/>
<path d="M618.7 52.9V177.5C630.7 170.9 637.9 162.7 637.9 153.8V76.6C637.9 67.8 630.8 59.6 618.7 52.9Z" fill="#001E2B" stroke="#001E2B" stroke-width="0.75" stroke-miterlimit="10"/>
<path d="M539.4 116.6C593.8 116.6 637.9 98.6914 637.9 76.6C637.9 54.5086 593.8 36.6 539.4 36.6C485 36.6 440.9 54.5086 440.9 76.6C440.9 98.6914 485 116.6 539.4 116.6Z" fill="white" stroke="#231F20" stroke-width="0.75" stroke-miterlimit="10"/>
<path d="M149.1 196.9C186.655 196.9 217.1 166.455 217.1 128.9C217.1 91.3446 186.655 60.9 149.1 60.9C111.544 60.9 81.0999 91.3446 81.0999 128.9C81.0999 166.455 111.544 196.9 149.1 196.9Z" fill="white" stroke="#001E2B" stroke-width="0.75" stroke-miterlimit="10"/>
<path d="M96.2 130V171.6C119.7 200.7 162.3 205.5 191.6 182.1C220.9 158.7 225.7 115.9 202.3 86.6C199.8 83.5 197.1 80.6 194.2 78.1H148.2L96.2 130Z" fill="white" stroke="#001E2B" stroke-width="0.75" stroke-miterlimit="10"/>
<path d="M148.2 130H104.2V180C128.5 201.4 165.3 203 191.5 182.1C220.8 158.7 225.6 115.9 202.2 86.6C202.2 86.6 202.2 86.5 202.1 86.5H148.1V130H148.2Z" fill="#00ED64" stroke="#001E2B" stroke-width="0.75" stroke-miterlimit="10"/>
<path d="M96.2 130L148.2 78V130H96.2Z" fill="white" stroke="#231F20" stroke-width="0.75" stroke-miterlimit="10" stroke-linejoin="round"/>
<path d="M142.4 130L146 141.4L96.2 130H142.4Z" fill="#001E2B"/>
<path d="M213.2 106.1H148.2V111.5H214.9C214.4 109.7 213.8 107.9 213.2 106.1Z" fill="#00ED64" stroke="#001E2B" stroke-width="0.75" stroke-miterlimit="10"/>
<path d="M217.1 130H162.4C161 130 159.8 131.1 159.8 132.6V132.9C159.8 134.3 160.9 135.5 162.4 135.5H216.8C217 133.6 217.1 131.8 217.1 130Z" fill="#00ED64" stroke="#001E2B" stroke-width="0.75" stroke-miterlimit="10"/>
<path d="M211.2 156.6H125.8C124.4 156.6 123.2 157.7 123.2 159.2V159.5C123.2 160.9 124.3 162.1 125.8 162.1H208.4C209.5 160.3 210.4 158.4 211.2 156.6Z" fill="#00ED64" stroke="#001E2B" stroke-width="0.75" stroke-miterlimit="10"/>
<path d="M153 183.2C151.6 183.2 150.4 184.3 150.4 185.8V186.1C150.4 187.5 151.5 188.7 153 188.7H181.5C184.4 187.1 187.2 185.3 189.9 183.3H153V183.2Z" fill="#00ED64" stroke="#001E2B" stroke-width="0.75" stroke-miterlimit="10"/>
<path d="M49.1999 355.5C49.1999 355.5 47.6999 359.3 57.3999 363.1C67.0999 366.9 68.5999 363 68.5999 363L128.4 210.5C128.4 210.5 128.8 206.5 120.2 203.1C111.6 199.7 109.1 202.9 109.1 202.9L49.1999 355.5Z" fill="#FFE212" stroke="#001F2C" stroke-width="0.75" stroke-miterlimit="10"/>
<path d="M123.6 204.8L61.0999 364.3C67.3999 365.8 68.4999 363.1 68.4999 363.1L128.3 210.6C128.3 210.5 128.5 207.7 123.6 204.8Z" fill="#001F2C"/>
<path d="M106.7 205.3C106.7 205.3 106.6 209.7 115.8 213.4C125 217.1 128 214 128 214L134.9 197.2C134.9 197.2 131.5 196.9 123.9 193.8C116.3 190.7 113.6 188.5 113.6 188.5L106.7 205.3Z" fill="#FFE212" stroke="#001F2C" stroke-width="0.75" stroke-miterlimit="10"/>
<path d="M170.8 67C207.4 82 224.9 123.8 210 160.4C195 197 153.2 214.5 116.6 199.6C79.9999 184.7 62.4999 142.8 77.3999 106.2C92.2999 69.6 134.2 52 170.8 67ZM84.2999 109C70.8999 141.8 86.5999 179.2 119.4 192.6C152.2 206 189.6 190.3 203 157.5C216.4 124.7 200.7 87.3 167.9 73.9C135.1 60.5 97.6999 76.2 84.2999 109Z" fill="#001F2C"/>
<path d="M170.8 67C207.4 82 224.9 123.8 210 160.4C195 197 153.2 214.5 116.6 199.6C79.9999 184.7 62.4999 142.8 77.3999 106.2C92.2999 69.6 134.2 52 170.8 67ZM84.2999 109C70.8999 141.8 86.5999 179.2 119.4 192.6C152.2 206 189.6 190.3 203 157.5C216.4 124.7 200.7 87.3 167.9 73.9C135.1 60.5 97.6999 76.2 84.2999 109Z" fill="#001F2C"/>
<path d="M176.2 62.6C212.8 77.6 230.3 119.4 215.4 156C200.4 192.6 158.6 210.1 122 195.2C85.3998 180.3 67.8998 138.4 82.7998 101.8C97.6998 65.2 139.6 47.7 176.2 62.6ZM89.7998 104.7C76.3998 137.5 92.0998 174.9 124.9 188.3C157.7 201.7 195.1 186 208.5 153.2C221.9 120.4 206.2 83 173.4 69.6C140.6 56.2 103.2 71.9 89.7998 104.7Z" fill="#FFE212"/>
<path d="M176.2 62.6C212.8 77.6 230.3 119.4 215.4 156C200.4 192.6 158.6 210.1 122 195.2C85.3998 180.3 67.8998 138.4 82.7998 101.8C97.6998 65.2 139.6 47.7 176.2 62.6ZM89.7998 104.7C76.3998 137.5 92.0998 174.9 124.9 188.3C157.7 201.7 195.1 186 208.5 153.2C221.9 120.4 206.2 83 173.4 69.6C140.6 56.2 103.2 71.9 89.7998 104.7Z" fill="#FFE212" stroke="#001F2C" stroke-width="0.75" stroke-miterlimit="10"/>
<path d="M126.1 197L118.9 214.6C118.9 214.6 125.4 216.5 128 214L134 199.2L126.1 197Z" fill="#001F2C"/>
<path d="M82.2 63.2C118.5 26.9 177.4 26.9 213.7 63.2" stroke="#001E2B" stroke-width="0.75" stroke-miterlimit="10" stroke-dasharray="2 2"/>
<path d="M65.5999 46.6C111.1 1.10001 184.8 1.10001 230.2 46.6" stroke="#001E2B" stroke-width="0.75" stroke-miterlimit="10" stroke-dasharray="2 2"/>
<path d="M599 5.89999L605.7 20.4L612.3 34.9L596.4 33.4L580.6 31.9L589.8 18.9L599 5.89999Z" fill="white" stroke="#001E2B" stroke-width="0.75" stroke-miterlimit="10"/>
<path d="M597.4 23.7L580.6 31.9L612.3 34.9L597.4 23.7Z" fill="#001E2B"/>
<path d="M597.4 23.7L599 5.89999" stroke="#001E2B" stroke-width="0.75" stroke-miterlimit="10"/>
<path d="M551 40.6L541.8 53.6L557.6 55.1L573.4 56.6L566.8 42L564.9 38C561.2 37.6 557.3 37.3 553.4 37L551 40.6Z" fill="#001E2B" stroke="#001E2B" stroke-width="0.75" stroke-miterlimit="10"/>
<path d="M160.6 375.9C174.573 375.9 185.9 364.573 185.9 350.6C185.9 336.627 174.573 325.3 160.6 325.3C146.627 325.3 135.3 336.627 135.3 350.6C135.3 364.573 146.627 375.9 160.6 375.9Z" fill="#FFC010" stroke="#001E2B" stroke-width="0.75" stroke-miterlimit="10"/>
<path d="M160.6 336.7V364.5" stroke="#001E2B" stroke-width="0.75" stroke-miterlimit="10"/>
<path d="M174.5 350.6H146.7" stroke="#001E2B" stroke-width="0.75" stroke-miterlimit="10"/>
<path d="M418.598 340.561L412.376 334.338L387.062 359.652L393.284 365.875L418.598 340.561Z" fill="#FFC010" stroke="#001E2B" stroke-width="0.75" stroke-miterlimit="10"/>
<path d="M423.394 335.832L417.172 329.609L412.363 334.418L418.586 340.64L423.394 335.832Z" fill="#FFC010" stroke="#001E2B" stroke-width="0.75" stroke-miterlimit="10"/>
<path d="M381.2 371.7L387 359.7L393.3 365.9L381.2 371.7Z" fill="#FFC010" stroke="#001E2B" stroke-width="0.75" stroke-miterlimit="10"/>
<path d="M284.6 165.8H259.7V202.7H284.6V165.8Z" stroke="#001F2C" stroke-width="0.75" stroke-miterlimit="10"/>
<path d="M303.3 184.5H278.4V221.4H303.3V184.5Z" stroke="#001F2C" stroke-width="0.75" stroke-miterlimit="10"/>
</svg>
